# xmcd
#
# Track frame offsets:
#	150
#	12579
#	27312
#	39094
#	48837
#	58024
#	66680
#	78646
#	94609
#	106428
#	116849
#	124832
#
# Disc length: 1864 seconds
#
# Revision: 0
# Processed by: cddbd v1.5.1PL0 Copyright (c) Steve Scherf et al.
# Submitted via: dBpowerAMP V4.0
#
DISCID=a407460c
DTITLE=Ray Campi Feat. Pat Reyford - Tennessee And Texas
DYEAR=2004
DGENRE=Rock and Roll
TTITLE0=Tennessee And Texas.
TTITLE1=Night Owl
TTITLE2=Cherokee Boogie
TTITLE3=Flying Solo
TTITLE4=Turn Me All Around
TTITLE5=I Saw Your Face In The Moon
TTITLE6=I'm Not The Sky
TTITLE7=Rockin' On Saturn
TTITLE8=What Have I Done.
TTITLE9=Hawaiian Echoes.
TTITLE10=Hot Rod Ford.
TTITLE11=Lucy Lee.
EXTD=
EXTT0=
EXTT1=
EXTT2=
EXTT3=
EXTT4=
EXTT5=
EXTT6=
EXTT7=
EXTT8=
EXTT9=
EXTT10=
EXTT11=
PLAYORDER=
